<svg width="22" height="22" viewBox="0 0 22 22" fill="none" xmlns="http://www.w3.org/2000/svg">
<path d="M11.1698 5.35918C14.0983 5.35918 16.5155 7.77637 16.5155 10.7049C16.5155 13.6799 14.0983 16.0506 11.1698 16.0506C8.19481 16.0506 5.82411 13.6799 5.82411 10.7049C5.82411 7.77637 8.19481 5.35918 11.1698 5.35918ZM11.1698 14.1912C13.0757 14.1912 14.6097 12.6572 14.6097 10.7049C14.6097 8.79902 13.0757 7.26504 11.1698 7.26504C9.21747 7.26504 7.68348 8.79902 7.68348 10.7049C7.68348 12.6572 9.26395 14.1912 11.1698 14.1912ZM17.9565 5.17324C17.9565 5.87051 17.3987 6.42832 16.7015 6.42832C16.0042 6.42832 15.4464 5.87051 15.4464 5.17324C15.4464 4.47598 16.0042 3.91816 16.7015 3.91816C17.3987 3.91816 17.9565 4.47598 17.9565 5.17324ZM21.4893 6.42832C21.5823 8.14824 21.5823 13.308 21.4893 15.0279C21.3964 16.7014 21.0245 18.1424 19.8159 19.3975C18.6073 20.6061 17.1198 20.9779 15.4464 21.0709C13.7265 21.1639 8.56669 21.1639 6.84677 21.0709C5.17333 20.9779 3.73231 20.6061 2.47723 19.3975C1.26864 18.1424 0.896766 16.7014 0.803797 15.0279C0.710828 13.308 0.710828 8.14824 0.803797 6.42832C0.896766 4.75488 1.26864 3.26738 2.47723 2.05879C3.73231 0.850196 5.17333 0.478321 6.84677 0.385352C8.56669 0.292383 13.7265 0.292383 15.4464 0.385352C17.1198 0.478321 18.6073 0.850196 19.8159 2.05879C21.0245 3.26738 21.3964 4.75488 21.4893 6.42832ZM19.2581 16.8408C19.8159 15.4928 19.6765 12.2389 19.6765 10.7049C19.6765 9.21738 19.8159 5.96348 19.2581 4.56895C18.8862 3.68574 18.189 2.94199 17.3057 2.6166C15.9112 2.05879 12.6573 2.19824 11.1698 2.19824C9.63583 2.19824 6.38192 2.05879 5.03388 2.6166C4.10419 2.98848 3.40692 3.68574 3.03505 4.56895C2.47723 5.96348 2.61669 9.21738 2.61669 10.7049C2.61669 12.2389 2.47723 15.4928 3.03505 16.8408C3.40692 17.7705 4.10419 18.4678 5.03388 18.8396C6.38192 19.3975 9.63583 19.258 11.1698 19.258C12.6573 19.258 15.9112 19.3975 17.3057 18.8396C18.189 18.4678 18.9327 17.7705 19.2581 16.8408Z" fill="#2D2D2D"/>
</svg>
