<svg width="15" height="18" viewBox="0 0 15 18" fill="none" xmlns="http://www.w3.org/2000/svg">
<path d="M13.7895 7.94531C13.6723 8.0625 13.5317 8.12109 13.3676 8.12109C13.227 8.12109 13.0981 8.07422 12.9809 7.98047L7.74265 3.02344V16.2773C7.69577 16.6523 7.51999 16.8516 7.21531 16.875C6.86374 16.8516 6.66452 16.6523 6.61765 16.2773V3.02344L1.37937 7.98047C1.09812 8.16797 0.828588 8.15625 0.570775 7.94531C0.359838 7.64062 0.371556 7.35938 0.605931 7.10156L6.79343 1.26562C7.05124 1.07812 7.30906 1.07812 7.56687 1.26562L13.7544 7.10156C13.9887 7.35938 14.0005 7.64062 13.7895 7.94531Z" fill="#2D2D2D"/>
</svg>
