<svg width="20" height="18" viewBox="0 0 20 18" fill="none" xmlns="http://www.w3.org/2000/svg">
<path d="M18.5078 0.210938C18.3203 0.0703125 18.1094 0 17.875 0C17.6875 0 17.5 0.046875 17.3125 0.140625L1.5625 9.10547C1.1875 9.38672 1 9.73828 1 10.1602C1.04688 10.6055 1.28125 10.9336 1.70312 11.1445L5.32422 12.6562L7.50391 17.7891C7.57422 17.9297 7.64453 18 7.71484 18C7.78516 18 7.85547 17.9766 7.92578 17.9297L10.9141 15.0117L15.168 16.8047C15.3086 16.8516 15.4492 16.875 15.5898 16.875C15.8242 16.8516 16.0117 16.8047 16.1523 16.7344C16.457 16.5469 16.6445 16.2773 16.7148 15.9258L18.9648 1.33594C19.0352 0.84375 18.8828 0.46875 18.5078 0.210938ZM2.125 10.125L15.4844 2.49609L5.35938 11.4609L2.125 10.125ZM8.06641 16.2422L6.30859 12.1289L14.3945 4.99219L8.41797 13.1836C8.32422 13.3242 8.30078 13.4766 8.34766 13.6406C8.39453 13.8281 8.5 13.957 8.66406 14.0273L9.89453 14.5195L8.06641 16.2422ZM15.6602 15.5742L9.75391 13.2539L17.6992 2.32031L15.6602 15.5742Z" fill="#2D2D2D"/>
</svg>
