<svg aria-hidden="true" xmlns="http://www.w3.org/2000/svg" xmlns:xlink="http://www.w3.org/1999/xlink"><symbol viewBox="0 0 15 18" fill="none" id="icon-arrow" xmlns="http://www.w3.org/2000/svg">
<path d="M13.7895 7.94531C13.6723 8.0625 13.5317 8.12109 13.3676 8.12109C13.227 8.12109 13.0981 8.07422 12.9809 7.98047L7.74265 3.02344V16.2773C7.69577 16.6523 7.51999 16.8516 7.21531 16.875C6.86374 16.8516 6.66452 16.6523 6.61765 16.2773V3.02344L1.37937 7.98047C1.09812 8.16797 0.828588 8.15625 0.570775 7.94531C0.359838 7.64062 0.371556 7.35938 0.605931 7.10156L6.79343 1.26562C7.05124 1.07812 7.30906 1.07812 7.56687 1.26562L13.7544 7.10156C13.9887 7.35938 14.0005 7.64062 13.7895 7.94531Z" fill="currentColor"/>
</symbol><symbol viewBox="0 0 121 10" fill="none" id="icon-arrow-full" xmlns="http://www.w3.org/2000/svg">
<rect width="120" height="1" transform="translate(0.189941 4.37988)" fill="currentColor"/>
<rect x="115.71" y="8.63965" width="6.00001" height="1.00001" transform="rotate(-45 115.71 8.63965)" fill="currentColor"/>
<rect x="116.42" y="0.399414" width="6.00001" height="1.00001" transform="rotate(45 116.42 0.399414)" fill="currentColor"/>
</symbol><symbol viewBox="0 0 22 22" fill="none" id="icon-inst" xmlns="http://www.w3.org/2000/svg">
<path d="M11.1698 5.35918C14.0983 5.35918 16.5155 7.77637 16.5155 10.7049C16.5155 13.6799 14.0983 16.0506 11.1698 16.0506C8.19481 16.0506 5.82411 13.6799 5.82411 10.7049C5.82411 7.77637 8.19481 5.35918 11.1698 5.35918ZM11.1698 14.1912C13.0757 14.1912 14.6097 12.6572 14.6097 10.7049C14.6097 8.79902 13.0757 7.26504 11.1698 7.26504C9.21747 7.26504 7.68348 8.79902 7.68348 10.7049C7.68348 12.6572 9.26395 14.1912 11.1698 14.1912ZM17.9565 5.17324C17.9565 5.87051 17.3987 6.42832 16.7015 6.42832C16.0042 6.42832 15.4464 5.87051 15.4464 5.17324C15.4464 4.47598 16.0042 3.91816 16.7015 3.91816C17.3987 3.91816 17.9565 4.47598 17.9565 5.17324ZM21.4893 6.42832C21.5823 8.14824 21.5823 13.308 21.4893 15.0279C21.3964 16.7014 21.0245 18.1424 19.8159 19.3975C18.6073 20.6061 17.1198 20.9779 15.4464 21.0709C13.7265 21.1639 8.56669 21.1639 6.84677 21.0709C5.17333 20.9779 3.73231 20.6061 2.47723 19.3975C1.26864 18.1424 0.896766 16.7014 0.803797 15.0279C0.710828 13.308 0.710828 8.14824 0.803797 6.42832C0.896766 4.75488 1.26864 3.26738 2.47723 2.05879C3.73231 0.850196 5.17333 0.478321 6.84677 0.385352C8.56669 0.292383 13.7265 0.292383 15.4464 0.385352C17.1198 0.478321 18.6073 0.850196 19.8159 2.05879C21.0245 3.26738 21.3964 4.75488 21.4893 6.42832ZM19.2581 16.8408C19.8159 15.4928 19.6765 12.2389 19.6765 10.7049C19.6765 9.21738 19.8159 5.96348 19.2581 4.56895C18.8862 3.68574 18.189 2.94199 17.3057 2.6166C15.9112 2.05879 12.6573 2.19824 11.1698 2.19824C9.63583 2.19824 6.38192 2.05879 5.03388 2.6166C4.10419 2.98848 3.40692 3.68574 3.03505 4.56895C2.47723 5.96348 2.61669 9.21738 2.61669 10.7049C2.61669 12.2389 2.47723 15.4928 3.03505 16.8408C3.40692 17.7705 4.10419 18.4678 5.03388 18.8396C6.38192 19.3975 9.63583 19.258 11.1698 19.258C12.6573 19.258 15.9112 19.3975 17.3057 18.8396C18.189 18.4678 18.9327 17.7705 19.2581 16.8408Z" fill="currentColor"/>
</symbol><symbol viewBox="0 0 20 18" fill="none" id="icon-tg" xmlns="http://www.w3.org/2000/svg">
<path d="M18.5078 0.210938C18.3203 0.0703125 18.1094 0 17.875 0C17.6875 0 17.5 0.046875 17.3125 0.140625L1.5625 9.10547C1.1875 9.38672 1 9.73828 1 10.1602C1.04688 10.6055 1.28125 10.9336 1.70312 11.1445L5.32422 12.6562L7.50391 17.7891C7.57422 17.9297 7.64453 18 7.71484 18C7.78516 18 7.85547 17.9766 7.92578 17.9297L10.9141 15.0117L15.168 16.8047C15.3086 16.8516 15.4492 16.875 15.5898 16.875C15.8242 16.8516 16.0117 16.8047 16.1523 16.7344C16.457 16.5469 16.6445 16.2773 16.7148 15.9258L18.9648 1.33594C19.0352 0.84375 18.8828 0.46875 18.5078 0.210938ZM2.125 10.125L15.4844 2.49609L5.35938 11.4609L2.125 10.125ZM8.06641 16.2422L6.30859 12.1289L14.3945 4.99219L8.41797 13.1836C8.32422 13.3242 8.30078 13.4766 8.34766 13.6406C8.39453 13.8281 8.5 13.957 8.66406 14.0273L9.89453 14.5195L8.06641 16.2422ZM15.6602 15.5742L9.75391 13.2539L17.6992 2.32031L15.6602 15.5742Z" fill="currentColor"/>
</symbol></svg>